<?xml version="1.0" standalone="no"?>
<!DOCTYPE svg PUBLIC "-//W3C//DTD SVG 20010904//EN"
 "http://www.w3.org/TR/2001/REC-SVG-20010904/DTD/svg10.dtd">
<svg version="1.0" xmlns="http://www.w3.org/2000/svg"
 width="512.000000pt" height="512.000000pt" viewBox="0 0 512.000000 512.000000"
 preserveAspectRatio="xMidYMid meet">
<metadata>
Created by potrace 1.14, written by Peter Selinger 2001-2017
</metadata>
<g transform="translate(0.000000,512.000000) scale(0.100000,-0.100000)"
fill="#000000" stroke="none">
<path d="M3966 4818 c-8 -13 -33 -74 -56 -137 -38 -106 -39 -115 -25 -137 15
-24 49 -31 72 -16 6 4 18 25 26 47 88 231 86 225 61 249 -23 23 -61 20 -78 -6z"/>
<path d="M4275 4694 c-38 -37 -98 -93 -132 -125 -68 -63 -78 -92 -44 -123 22
-20 52 -15 80 12 9 10 67 64 129 121 87 82 112 110 112 131 0 33 -17 50 -49
50 -18 0 -48 -21 -96 -66z"/>
<path d="M3250 4187 c-507 -253 -735 -364 -1010 -490 -384 -176 -352 -161
-600 -266 -304 -129 -300 -127 -301 -153 -2 -30 -4 -12 26 -188 15 -85 29
-168 31 -185 3 -16 9 -55 14 -85 5 -30 12 -77 15 -105 4 -27 8 -57 10 -65 3
-8 7 -35 10 -60 3 -25 7 -54 9 -65 2 -12 7 -48 11 -80 4 -33 9 -68 11 -79 2
-10 6 -44 10 -75 3 -31 7 -63 9 -71 1 -8 6 -49 10 -90 4 -41 9 -83 10 -92 2
-9 6 -48 10 -85 3 -37 8 -86 10 -108 2 -22 7 -76 10 -120 3 -44 8 -100 10
-125 2 -25 7 -123 10 -218 l7 -173 -35 20 c-34 19 -114 49 -150 56 -10 3 -26
6 -35 9 -9 3 -30 8 -47 10 -16 3 -52 10 -80 15 -188 35 -375 -22 -515 -159
-103 -100 -152 -213 -151 -345 3 -298 237 -538 524 -537 76 0 290 43 353 71
83 37 163 108 218 194 34 53 78 165 90 227 3 19 8 46 11 60 27 128 27 854 0
1140 -2 19 -6 69 -10 110 -3 41 -7 84 -8 94 -2 16 13 23 78 43 325 98 559 185
910 340 22 9 144 69 270 133 267 135 461 247 703 406 94 62 172 112 173 111 0
-1 2 -15 4 -32 2 -16 6 -43 9 -60 3 -16 8 -52 11 -80 3 -27 8 -57 10 -65 3 -8
7 -35 10 -60 3 -25 8 -56 10 -70 11 -68 32 -208 40 -276 3 -22 7 -46 10 -54 2
-8 7 -40 10 -70 3 -30 8 -66 10 -80 3 -14 7 -45 10 -70 3 -25 7 -63 10 -85 19
-147 26 -231 29 -363 2 -90 1 -102 -13 -96 -58 24 -208 34 -299 20 -116 -18
-246 -79 -321 -149 -107 -101 -155 -260 -123 -405 12 -55 59 -153 89 -187 110
-125 324 -189 463 -140 237 84 365 323 407 760 15 151 8 588 -11 681 -2 11 -7
54 -11 95 -3 41 -8 81 -10 89 -2 8 -7 40 -10 70 -3 30 -8 62 -10 70 -2 8 -7
35 -10 60 -6 43 -9 64 -20 128 -15 93 -36 229 -39 256 -2 17 -7 55 -11 85 -4
30 -9 63 -11 75 -2 12 -9 59 -14 106 -6 47 -13 92 -15 100 -2 8 -6 40 -10 70
-3 30 -7 69 -10 85 -2 17 -7 46 -9 65 -6 43 -36 246 -41 280 -2 14 -7 41 -10
60 -3 19 -7 46 -10 60 -3 14 -7 41 -10 60 -20 126 -29 153 -58 179 -17 14 -51
45 -76 68 -33 31 -54 42 -76 42 -19 0 -214 -92 -515 -242z m471 106 c0 -5 2
-15 4 -23 1 -8 6 -46 9 -83 4 -37 9 -76 11 -85 1 -9 6 -44 9 -77 4 -33 9 -73
11 -90 10 -75 14 -103 21 -150 3 -27 8 -57 9 -65 2 -9 6 -43 10 -75 4 -33 9
-67 11 -77 1 -9 6 -38 10 -65 3 -26 8 -57 10 -68 2 -11 7 -40 10 -65 l6 -45
-184 -121 c-179 -118 -322 -207 -443 -274 -360 -201 -700 -357 -1040 -480 -49
-18 -99 -36 -110 -40 -71 -29 -473 -145 -479 -138 -2 1 -6 29 -10 61 -3 32
-10 86 -15 120 -5 34 -12 85 -16 112 -3 28 -8 57 -10 65 -2 8 -6 38 -10 65 -3
28 -15 102 -25 165 -10 63 -21 131 -24 150 -3 19 -12 73 -21 120 -8 47 -15 90
-15 96 0 6 42 28 92 49 108 44 90 36 368 158 218 96 299 133 425 192 39 18
119 56 179 84 223 105 441 211 810 397 210 105 384 192 389 193 4 0 7 -2 8 -6z"/>
<path d="M4141 4321 c-23 -23 -18 -56 13 -76 11 -7 59 -20 106 -29 47 -9 122
-25 167 -35 94 -21 126 -14 131 30 4 38 -17 54 -90 69 -35 7 -111 23 -170 36
-129 29 -133 29 -157 5z"/>
</g>
</svg>
